# Blender v2.93.0 OBJ File: 'Bullet.blend'
# www.blender.org
mtllib Bullet.mtl
o Bullet_Cube
v 0.100000 0.100000 -0.100000
v 0.100000 -0.100000 -0.100000
v 0.100000 0.100000 0.100000
v 0.100000 -0.100000 0.100000
v -0.100000 0.108572 -0.108572
v -0.100000 -0.108572 -0.108572
v -0.100000 0.108572 0.108572
v -0.100000 -0.108572 0.108572
v 0.200000 0.080000 -0.080000
v 0.200000 -0.080000 -0.080000
v 0.200000 0.080000 0.080000
v 0.200000 -0.080000 0.080000
v 0.260000 0.040000 -0.040000
v 0.260000 -0.040000 -0.040000
v 0.260000 0.040000 0.040000
v 0.260000 -0.040000 0.040000
v -0.150000 -0.110000 -0.110000
v -0.150000 -0.110000 0.110000
v -0.150000 0.110000 0.110000
v -0.150000 0.110000 -0.110000
v -0.200000 -0.110000 -0.110000
v -0.200000 -0.110000 0.110000
v -0.200000 0.110000 0.110000
v -0.200000 0.110000 -0.110000
vt 0.625000 0.500000
vt 0.875000 0.500000
vt 0.875000 0.750000
vt 0.625000 0.750000
vt 0.375000 0.750000
vt 0.625000 1.000000
vt 0.375000 1.000000
vt 0.125000 0.500000
vt 0.125000 0.750000
vt 0.125000 0.750000
vt 0.125000 0.500000
vt 0.375000 0.500000
vt 0.375000 0.750000
vt 0.625000 0.750000
vt 0.375000 0.250000
vt 0.625000 0.250000
vt 0.375000 0.500000
vt 0.625000 0.500000
vt 0.625000 0.500000
vt 0.375000 0.500000
vt 0.625000 0.750000
vt 0.375000 0.750000
vt 0.625000 0.250000
vt 0.375000 0.250000
vt 0.375000 0.250000
vt 0.625000 0.250000
vt 0.875000 0.500000
vt 0.875000 0.750000
vt 0.625000 1.000000
vt 0.375000 1.000000
vt 0.375000 0.000000
vt 0.625000 0.000000
vt 0.125000 0.750000
vt 0.125000 0.500000
vt 0.875000 0.500000
vt 0.875000 0.750000
vt 0.625000 1.000000
vt 0.375000 1.000000
vn 0.0428 0.9991 0.0000
vn 0.0428 0.0000 0.9991
vn 0.0286 -0.9996 0.0000
vn 0.0428 -0.9991 0.0000
vn 0.1961 0.0000 0.9806
vn 0.0428 0.0000 -0.9991
vn 0.5547 0.0000 -0.8321
vn 0.1961 0.0000 -0.9806
vn 0.1961 -0.9806 0.0000
vn 0.1961 0.9806 0.0000
vn 1.0000 0.0000 0.0000
vn 0.5547 -0.8321 0.0000
vn 0.5547 0.0000 0.8321
vn 0.5547 0.8321 0.0000
vn 0.0000 0.0000 -1.0000
vn 0.0286 0.9996 0.0000
vn 0.0286 0.0000 -0.9996
vn 0.0286 0.0000 0.9996
vn -1.0000 0.0000 0.0000
vn 0.0000 -1.0000 0.0000
vn 0.0000 1.0000 0.0000
vn 0.0000 0.0000 1.0000
usemtl Material
s off
f 1/1/1 5/2/1 7/3/1 3/4/1
f 4/5/2 3/4/2 7/6/2 8/7/2
f 6/8/3 8/9/3 18/10/3 17/11/3
f 6/8/4 2/12/4 4/5/4 8/9/4
f 3/4/5 4/5/5 12/13/5 11/14/5
f 6/15/6 5/16/6 1/1/6 2/12/6
f 10/17/7 9/18/7 13/19/7 14/20/7
f 2/12/8 1/1/8 9/18/8 10/17/8
f 4/5/9 2/12/9 10/17/9 12/13/9
f 1/1/10 3/4/10 11/14/10 9/18/10
f 14/20/11 13/19/11 15/21/11 16/22/11
f 12/13/12 10/17/12 14/20/12 16/22/12
f 11/14/13 12/13/13 16/22/13 15/21/13
f 9/18/14 11/14/14 15/21/14 13/19/14
f 20/23/15 17/24/15 21/25/15 24/26/15
f 7/3/16 5/2/16 20/27/16 19/28/16
f 5/16/17 6/15/17 17/24/17 20/23/17
f 8/7/18 7/6/18 19/29/18 18/30/18
f 22/31/19 23/32/19 24/26/19 21/25/19
f 17/11/20 18/10/20 22/33/20 21/34/20
f 19/28/21 20/27/21 24/35/21 23/36/21
f 18/30/22 19/29/22 23/37/22 22/38/22
