# Blender v2.93.0 OBJ File: 'Zombie.blender.blend'
# www.blender.org
mtllib Zombie.blender.mtl
o ZombieMesh_Cube.001
v -0.107452 1.137433 0.233872
v -0.119698 1.337433 0.365115
v -0.107452 1.137433 -0.233872
v -0.119698 1.337433 -0.365115
v 0.105119 1.137433 0.233872
v 0.119698 1.337433 0.365115
v 0.105119 1.137433 -0.233872
v 0.119698 1.337433 -0.365115
v -0.100000 1.137433 -0.200000
v -0.076196 0.737433 -0.181762
v -0.100000 1.137433 0.200000
v -0.076196 0.737433 0.181762
v 0.085880 0.737433 0.181762
v 0.100000 1.137433 0.200000
v 0.085880 0.737433 -0.181762
v 0.100000 1.137433 -0.200000
v 0.075148 0.789346 0.182294
v 0.075148 0.789346 -0.182294
v -0.089117 0.789346 0.182294
v -0.089117 0.789346 -0.182294
v 0.696992 1.316732 -0.298995
v 0.695405 1.208911 -0.296427
v 0.803543 1.314868 -0.311429
v 0.801957 1.207047 -0.308861
v 0.789910 1.204774 -0.411747
v 0.791497 1.312595 -0.414315
v 0.683358 1.206638 -0.399313
v 0.684945 1.314459 -0.401881
v 0.321327 1.204380 0.248351
v 0.323977 1.324263 0.243771
v 0.017253 1.209690 0.211458
v 0.019902 1.329574 0.206878
v 0.306969 1.209245 0.367390
v 0.309619 1.329128 0.362810
v 0.002895 1.214555 0.330497
v 0.005545 1.334439 0.325917
v 0.320640 1.317039 -0.258770
v 0.319228 1.221076 -0.256484
v 0.701994 1.310366 -0.303273
v 0.700582 1.214404 -0.300988
v 0.689421 1.212297 -0.396314
v 0.690833 1.308260 -0.398599
v 0.308066 1.218970 -0.351810
v 0.309479 1.314933 -0.354096
v 0.320291 1.312796 0.255892
v 0.318171 1.216889 0.259556
v 0.701438 1.306139 0.302136
v 0.699319 1.210233 0.305800
v 0.687832 1.214125 0.401031
v 0.689952 1.310032 0.397367
v 0.306685 1.220781 0.354787
v 0.308804 1.316688 0.351123
v 0.060000 0.382433 -0.175000
v 0.060000 0.382433 -0.055000
v 0.060000 0.758504 -0.175000
v 0.060000 0.758504 -0.055000
v -0.060000 0.758504 -0.055000
v -0.060000 0.758504 -0.175000
v -0.060000 0.382433 -0.055000
v -0.060000 0.382433 -0.175000
v 0.048000 0.000432 -0.163000
v 0.048000 0.000432 -0.067000
v 0.048000 0.384433 -0.163000
v 0.048000 0.384433 -0.067000
v -0.048000 0.384433 -0.067000
v -0.048000 0.384433 -0.163000
v -0.048000 0.000432 -0.067000
v -0.048000 0.000432 -0.163000
v 0.048000 0.038832 -0.163000
v 0.048000 0.038832 -0.067000
v -0.048000 0.038832 -0.067000
v -0.048000 0.038832 -0.163000
v 0.108000 0.027182 -0.067000
v 0.128214 0.000432 -0.067000
v 0.128214 0.000432 -0.163000
v 0.108000 0.027182 -0.163000
v 0.060000 0.382005 0.055000
v 0.060000 0.382005 0.175000
v 0.060000 0.758504 0.055000
v 0.060000 0.758504 0.175000
v -0.060000 0.758504 0.175000
v -0.060000 0.758504 0.055000
v -0.060000 0.382005 0.175000
v -0.060000 0.382005 0.055000
v 0.048000 0.000005 0.067000
v 0.048000 0.000005 0.163000
v 0.048000 0.384005 0.067000
v 0.048000 0.384005 0.163000
v -0.048000 0.384005 0.163000
v -0.048000 0.384005 0.067000
v -0.048000 0.000005 0.163000
v -0.048000 0.000005 0.067000
v 0.048000 0.038405 0.067000
v 0.048000 0.038405 0.163000
v -0.048000 0.038405 0.163000
v -0.048000 0.038405 0.067000
v 0.108000 0.026754 0.163000
v 0.128214 0.000005 0.163000
v 0.128214 0.000005 0.067000
v 0.108000 0.026754 0.067000
v 0.019959 1.334586 -0.211867
v 0.018193 1.214633 -0.209011
v 0.324198 1.329262 -0.247372
v 0.322433 1.209310 -0.244515
v 0.006007 1.331954 -0.331025
v 0.004242 1.212000 -0.328168
v 0.310247 1.326630 -0.366529
v 0.308481 1.206677 -0.363672
v 0.696497 1.312264 0.297452
v 0.694115 1.204506 0.301569
v 0.802991 1.310404 0.310373
v 0.800609 1.202646 0.314490
v 0.788212 1.206847 0.417273
v 0.790594 1.314605 0.413156
v 0.681718 1.208706 0.404352
v 0.684100 1.316465 0.400235
v 0.094496 1.595804 -0.097849
v 0.094496 1.369062 -0.097849
v 0.094496 1.595804 0.097849
v 0.094496 1.369062 0.097849
v -0.094496 1.369062 0.097849
v -0.094496 1.595804 0.097849
v -0.094496 1.369062 -0.097849
v -0.094496 1.595804 -0.097849
v -0.054121 1.354467 0.056042
v 0.054121 1.354467 0.056042
v 0.054121 1.354467 -0.056042
v -0.054121 1.354467 -0.056042
v -0.054121 1.332247 0.056042
v 0.054121 1.332247 0.056042
v 0.054121 1.332247 -0.056042
v -0.054121 1.332247 -0.056042
vt 0.523372 0.681743
vt 0.584115 0.641938
vt 0.584115 0.863409
vt 0.523372 0.823604
vt 0.591590 0.652320
vt 0.530650 0.656042
vt 0.530650 0.583435
vt 0.591590 0.587850
vt 0.523552 0.666880
vt 0.584122 0.627075
vt 0.584122 0.848546
vt 0.523552 0.808741
vt 0.527423 0.834201
vt 0.588032 0.829772
vt 0.588032 0.902378
vt 0.527423 0.898671
vt 0.581952 0.949131
vt 0.517487 0.949131
vt 0.517487 0.807269
vt 0.581952 0.807269
vt 0.655478 0.869824
vt 0.582874 0.869823
vt 0.582874 0.648353
vt 0.655478 0.648353
vt 0.485306 0.532998
vt 0.488773 0.601202
vt 0.410436 0.601202
vt 0.413904 0.532998
vt 0.414085 0.876884
vt 0.410277 0.755052
vt 0.480254 0.755052
vt 0.471559 0.876884
vt 0.420639 0.604669
vt 0.488712 0.601202
vt 0.488712 0.679539
vt 0.420639 0.676071
vt 0.444737 0.689705
vt 0.449605 0.757872
vt 0.410436 0.757872
vt 0.412567 0.689705
vt 0.664168 0.657820
vt 0.607464 0.657820
vt 0.607464 0.530629
vt 0.664168 0.530629
vt 0.569396 0.659548
vt 0.499421 0.659548
vt 0.499421 0.519594
vt 0.569396 0.519594
vt 0.485202 0.522758
vt 0.414008 0.522758
vt 0.418606 0.895048
vt 0.475314 0.895048
vt 0.410436 0.604773
vt 0.410436 0.675967
vt 0.446839 0.679539
vt 0.415098 0.679539
vt 0.673238 0.180348
vt 0.673238 0.213821
vt 0.641951 0.213807
vt 0.641951 0.180334
vt 0.653527 0.190956
vt 0.653527 0.224381
vt 0.623311 0.223794
vt 0.623311 0.190368
vt 0.478703 0.213494
vt 0.478703 0.180021
vt 0.509996 0.179940
vt 0.509996 0.213413
vt 0.463444 0.222897
vt 0.463444 0.189497
vt 0.493659 0.188768
vt 0.493659 0.222168
vt 0.495138 0.223034
vt 0.462993 0.222980
vt 0.462993 0.189761
vt 0.495138 0.189814
vt 0.527277 0.222933
vt 0.495138 0.223020
vt 0.495138 0.189848
vt 0.527277 0.189761
vt 0.434636 0.719086
vt 0.385965 0.719218
vt 0.385965 0.595367
vt 0.434636 0.595235
vt 0.582536 0.740374
vt 0.631215 0.740455
vt 0.631215 0.864484
vt 0.582536 0.864402
vt 0.631230 0.714453
vt 0.631230 0.665866
vt 0.676987 0.664761
vt 0.676987 0.713349
vt 0.458202 0.575031
vt 0.506895 0.575157
vt 0.506895 0.691992
vt 0.458202 0.691865
vt 0.516311 0.933567
vt 0.516311 0.884942
vt 0.562069 0.885832
vt 0.562069 0.934457
vt 0.616152 0.813676
vt 0.664847 0.813654
vt 0.664847 0.930467
vt 0.616152 0.930488
vt 0.480543 0.715322
vt 0.464878 0.715329
vt 0.464878 0.656449
vt 0.480543 0.656442
vt 0.334116 0.576062
vt 0.334116 0.591704
vt 0.319396 0.591418
vt 0.319396 0.575776
vt 0.316201 0.736984
vt 0.300536 0.736943
vt 0.300536 0.678053
vt 0.316201 0.678093
vt 0.319396 0.575776
vt 0.319396 0.560145
vt 0.334116 0.559790
vt 0.334116 0.575420
vt 0.300536 0.740595
vt 0.284876 0.740569
vt 0.284876 0.678053
vt 0.300536 0.678079
vt 0.306441 0.661013
vt 0.290784 0.661055
vt 0.290784 0.598628
vt 0.306441 0.598586
vt 0.306441 0.661013
vt 0.290784 0.661055
vt 0.290784 0.598628
vt 0.306441 0.598586
vt 0.300536 0.740595
vt 0.284876 0.740569
vt 0.284876 0.678053
vt 0.300536 0.678079
vt 0.319396 0.575776
vt 0.319396 0.560145
vt 0.334116 0.559790
vt 0.334116 0.575420
vt 0.316201 0.736984
vt 0.300536 0.736943
vt 0.300536 0.678053
vt 0.316201 0.678093
vt 0.334116 0.576062
vt 0.334116 0.591704
vt 0.319396 0.591418
vt 0.319396 0.575776
vt 0.480543 0.715322
vt 0.464878 0.715329
vt 0.464878 0.656449
vt 0.480543 0.656442
vt 0.649708 0.953619
vt 0.640573 0.953619
vt 0.640573 0.924991
vt 0.649708 0.924991
vt 0.327884 0.623198
vt 0.337019 0.623198
vt 0.337019 0.651826
vt 0.327884 0.651826
vt 0.351329 0.559017
vt 0.351329 0.568152
vt 0.342194 0.568152
vt 0.342194 0.559017
vt 0.321795 0.655947
vt 0.312659 0.655947
vt 0.312659 0.627323
vt 0.321795 0.627323
vt 0.398606 0.714082
vt 0.398606 0.723217
vt 0.389471 0.723217
vt 0.389471 0.714082
vt 0.288346 0.656960
vt 0.279211 0.656960
vt 0.279211 0.628346
vt 0.288346 0.628346
vt 0.311456 0.609961
vt 0.345539 0.609961
vt 0.345539 0.732655
vt 0.311456 0.732655
vt 0.220418 0.609962
vt 0.254501 0.609962
vt 0.254501 0.732658
vt 0.220418 0.732658
vt 0.254500 0.851732
vt 0.254500 0.817649
vt 0.288581 0.817649
vt 0.288581 0.851732
vt 0.524459 0.719006
vt 0.490377 0.719006
vt 0.490377 0.596329
vt 0.524459 0.596329
vt 0.915748 0.767993
vt 0.881665 0.767993
vt 0.881665 0.733913
vt 0.915748 0.733913
vt 0.422224 0.609955
vt 0.388142 0.609955
vt 0.388142 0.596329
vt 0.422224 0.596329
vt 0.422224 0.732594
vt 0.388142 0.732594
vt 0.697964 0.809492
vt 0.697964 0.775410
vt 0.719296 0.775410
vt 0.719296 0.809492
vt 0.220418 0.596329
vt 0.254501 0.596329
vt 0.311456 0.596329
vt 0.345539 0.596329
vt 0.717210 0.809492
vt 0.717210 0.843574
vt 0.707587 0.843574
vt 0.707587 0.809492
vt 0.282979 0.596329
vt 0.275802 0.605825
vt 0.881665 0.705438
vt 0.915748 0.705438
vt 0.290155 0.605825
vt 0.282979 0.596329
vt 0.367913 0.742742
vt 0.358778 0.742742
vt 0.358778 0.714082
vt 0.367913 0.714082
vt 0.349643 0.714082
vt 0.358778 0.714082
vt 0.358778 0.742743
vt 0.349643 0.742743
vt 0.360464 0.559017
vt 0.360464 0.568152
vt 0.351329 0.568152
vt 0.351329 0.559017
vt 0.360182 0.684851
vt 0.369316 0.684851
vt 0.369316 0.713507
vt 0.360182 0.713507
vt 0.382020 0.562061
vt 0.382020 0.571196
vt 0.372886 0.571196
vt 0.372886 0.562061
vt 0.352244 0.651836
vt 0.343109 0.651836
vt 0.343109 0.623189
vt 0.352244 0.623189
vt 0.334635 0.654219
vt 0.350754 0.654219
vt 0.350753 0.712246
vt 0.334635 0.712246
vt 0.654547 0.711158
vt 0.670666 0.711158
vt 0.670666 0.769186
vt 0.654547 0.769186
vt 0.337284 0.629833
vt 0.337284 0.645952
vt 0.321166 0.645952
vt 0.321166 0.629833
vt 0.446463 0.647771
vt 0.462582 0.647771
vt 0.462582 0.705791
vt 0.446463 0.705791
vt 0.350328 0.919711
vt 0.366447 0.919711
vt 0.366447 0.935828
vt 0.350328 0.935828
vt 0.414233 0.705772
vt 0.430352 0.705772
vt 0.430352 0.712217
vt 0.414233 0.712217
vt 0.414233 0.647771
vt 0.430352 0.647771
vt 0.520826 0.738689
vt 0.520826 0.722570
vt 0.530915 0.722570
vt 0.530915 0.738689
vt 0.654547 0.704711
vt 0.670666 0.704711
vt 0.334635 0.647771
vt 0.350754 0.647771
vt 0.558958 0.738668
vt 0.558958 0.754787
vt 0.554407 0.754787
vt 0.554407 0.738668
vt 0.684135 0.704711
vt 0.680741 0.709202
vt 0.366447 0.949296
vt 0.350328 0.949296
vt 0.324560 0.652262
vt 0.321166 0.647771
vt 0.542976 0.933159
vt 0.558171 0.933152
vt 0.558171 0.969602
vt 0.542976 0.969608
vt 0.511823 0.970569
vt 0.511823 0.955396
vt 0.526101 0.955674
vt 0.526101 0.970847
vt 0.537075 0.856627
vt 0.552269 0.856667
vt 0.552269 0.893123
vt 0.537075 0.893084
vt 0.547681 0.902198
vt 0.547681 0.887037
vt 0.561959 0.886692
vt 0.561959 0.901853
vt 0.532487 0.910286
vt 0.547677 0.910311
vt 0.547677 0.949013
vt 0.532487 0.948987
vt 0.529721 0.901578
vt 0.514534 0.901619
vt 0.514534 0.862973
vt 0.529721 0.862932
vt 0.527277 0.222933
vt 0.495138 0.223020
vt 0.495138 0.189848
vt 0.527277 0.189761
vt 0.495138 0.223034
vt 0.462993 0.222980
vt 0.462993 0.189761
vt 0.495138 0.189814
vt 0.633515 0.206345
vt 0.633515 0.172945
vt 0.663731 0.172216
vt 0.663731 0.205616
vt 0.477462 0.230046
vt 0.477462 0.196573
vt 0.508755 0.196492
vt 0.508755 0.229965
vt 0.688286 0.184335
vt 0.688286 0.217761
vt 0.658070 0.217173
vt 0.658070 0.183747
vt 0.673238 0.196900
vt 0.673238 0.230373
vt 0.641951 0.230359
vt 0.641951 0.196886
vt 0.618670 0.323543
vt 0.577437 0.323543
vt 0.577437 0.280845
vt 0.618670 0.280845
vt 0.403208 0.409684
vt 0.403208 0.366986
vt 0.412055 0.376108
vt 0.412055 0.400562
vt 0.447406 0.232695
vt 0.447406 0.282166
vt 0.406172 0.282166
vt 0.406172 0.232695
vt 0.616190 0.276044
vt 0.616190 0.466976
vt 0.451373 0.466976
vt 0.451373 0.276044
vt 0.397554 0.451232
vt 0.397554 0.401762
vt 0.438788 0.401762
vt 0.438788 0.451232
vt 0.436695 0.290186
vt 0.436695 0.339633
vt 0.393998 0.339633
vt 0.393998 0.290186
vt 0.435860 0.340736
vt 0.435860 0.316281
vt 0.440706 0.316281
vt 0.440706 0.340736
vt 0.444440 0.409684
vt 0.435670 0.400562
vt 0.444440 0.366986
vt 0.435670 0.376108
vt 0.417612 0.364088
vt 0.393998 0.364088
vt 0.393998 0.339633
vt 0.417612 0.339633
vt 0.417433 0.330794
vt 0.417433 0.306339
vt 0.422280 0.306339
vt 0.422280 0.330794
vt 0.440708 0.340736
vt 0.440708 0.364352
vt 0.435860 0.364352
vt 0.435860 0.340736
vt 0.417433 0.354410
vt 0.417433 0.330794
vt 0.422281 0.330794
vt 0.422281 0.354410
vn -0.9981 -0.0611 0.0000
vn 0.0000 -0.5486 -0.8361
vn 0.9974 -0.0727 0.0000
vn 0.0000 -0.5486 0.8361
vn 0.0000 -1.0000 0.0000
vn 0.0000 1.0000 0.0000
vn -0.9995 -0.0312 0.0000
vn 0.0000 -0.0508 -0.9987
vn 0.9975 -0.0712 0.0000
vn 0.0000 -0.0508 0.9987
vn -0.9704 -0.2415 0.0000
vn 0.0000 -0.0102 -0.9999
vn 0.9793 0.2024 0.0000
vn 0.0000 -0.0102 0.9999
vn 0.1163 0.0219 0.9930
vn -0.9931 0.0174 0.1159
vn -0.1163 -0.0219 -0.9930
vn 0.9931 -0.0174 -0.1159
vn -0.0147 -0.9996 0.0238
vn 0.0147 0.9996 -0.0238
vn 0.0221 0.9990 -0.0382
vn -0.0221 -0.9990 0.0382
vn 0.9926 -0.0173 0.1204
vn 0.1196 -0.0405 -0.9920
vn -0.9926 0.0173 -0.1204
vn -0.1196 0.0405 0.9920
vn 0.0000 -0.0000 -1.0000
vn 0.0000 0.0000 1.0000
vn 1.0000 0.0000 0.0000
vn -1.0000 0.0000 0.0000
vn 0.1906 0.9817 0.0000
vn 0.7978 0.6029 0.0000
vn 0.3400 -0.9404 0.0000
vn 0.0000 -0.9441 -0.3296
vn 0.0000 -0.9441 0.3296
vn -0.3400 -0.9404 0.0000
usemtl Material.001
s off
f 1/1/1 2/2/1 4/3/1 3/4/1
f 3/5/2 4/6/2 8/7/2 7/8/2
f 7/9/3 8/10/3 6/11/3 5/12/3
f 5/13/4 6/14/4 2/15/4 1/16/4
f 3/17/5 7/18/5 5/19/5 1/20/5
f 8/21/6 4/22/6 2/23/6 6/24/6
f 19/25/7 11/26/7 9/27/7 20/28/7
f 20/29/8 9/30/8 16/31/8 18/32/8
f 18/33/9 16/34/9 14/35/9 17/36/9
f 17/37/10 14/38/10 11/39/10 19/40/10
f 10/41/5 15/42/5 13/43/5 12/44/5
f 16/45/6 9/46/6 11/47/6 14/48/6
f 12/49/11 19/25/11 20/28/11 10/50/11
f 10/51/12 20/29/12 18/32/12 15/52/12
f 15/53/13 18/33/13 17/36/13 13/54/13
f 13/55/14 17/37/14 19/40/14 12/56/14
f 24/57/15 23/58/15 21/59/15 22/60/15
f 22/61/16 21/62/16 28/63/16 27/64/16
f 27/65/17 28/66/17 26/67/17 25/68/17
f 25/69/18 26/70/18 23/71/18 24/72/18
f 22/73/19 27/74/19 25/75/19 24/76/19
f 28/77/20 21/78/20 23/79/20 26/80/20
f 32/81/21 36/82/21 34/83/21 30/84/21
f 35/85/22 31/86/22 29/87/22 33/88/22
f 29/89/23 30/90/23 34/91/23 33/92/23
f 31/93/24 32/94/24 30/95/24 29/96/24
f 35/97/25 36/98/25 32/99/25 31/100/25
f 33/101/26 34/102/26 36/103/26 35/104/26
f 40/105/15 39/106/15 37/107/15 38/108/15
f 38/109/16 37/110/16 44/111/16 43/112/16
f 43/113/17 44/114/17 42/115/17 41/116/17
f 41/117/18 42/118/18 39/119/18 40/120/18
f 38/121/19 43/122/19 41/123/19 40/124/19
f 44/125/20 37/126/20 39/127/20 42/128/20
f 45/129/21 52/130/21 50/131/21 47/132/21
f 51/133/22 46/134/22 48/135/22 49/136/22
f 48/137/23 47/138/23 50/139/23 49/140/23
f 46/141/24 45/142/24 47/143/24 48/144/24
f 51/145/25 52/146/25 45/147/25 46/148/25
f 49/149/26 50/150/26 52/151/26 51/152/26
f 53/153/27 60/154/27 58/155/27 55/156/27
f 59/157/28 54/158/28 56/159/28 57/160/28
f 56/161/6 55/162/6 58/163/6 57/164/6
f 54/165/29 53/166/29 55/167/29 56/168/29
f 59/169/5 60/170/5 53/171/5 54/172/5
f 57/173/30 58/174/30 60/175/30 59/176/30
f 69/177/27 72/178/27 66/179/27 63/180/27
f 71/181/28 70/182/28 64/183/28 65/184/28
f 64/185/6 63/186/6 66/187/6 65/188/6
f 70/189/29 69/190/29 63/191/29 64/192/29
f 67/193/5 68/194/5 61/195/5 62/196/5
f 71/197/30 72/198/30 68/199/30 67/200/30
f 65/201/30 66/202/30 72/198/30 71/197/30
f 69/203/31 70/204/31 73/205/31 76/206/31
f 67/207/28 62/208/28 70/182/28 71/181/28
f 61/209/27 68/210/27 72/178/27 69/177/27
f 74/211/32 75/212/32 76/213/32 73/214/32
f 70/182/28 62/208/28 74/215/28 73/216/28
f 62/196/5 61/195/5 75/217/5 74/218/5
f 61/209/27 69/177/27 76/219/27 75/220/27
f 77/221/27 84/222/27 82/223/27 79/224/27
f 83/225/28 78/226/28 80/227/28 81/228/28
f 80/229/6 79/230/6 82/231/6 81/232/6
f 78/233/29 77/234/29 79/235/29 80/236/29
f 83/237/5 84/238/5 77/239/5 78/240/5
f 81/241/30 82/242/30 84/243/30 83/244/30
f 93/245/27 96/246/27 90/247/27 87/248/27
f 95/249/28 94/250/28 88/251/28 89/252/28
f 88/253/6 87/254/6 90/255/6 89/256/6
f 94/257/29 93/258/29 87/259/29 88/260/29
f 91/261/5 92/262/5 85/263/5 86/264/5
f 95/265/30 96/266/30 92/267/30 91/268/30
f 89/269/30 90/270/30 96/266/30 95/265/30
f 93/271/31 94/272/31 97/273/31 100/274/31
f 91/275/28 86/276/28 94/250/28 95/249/28
f 85/277/27 92/278/27 96/246/27 93/245/27
f 98/279/32 99/280/32 100/281/32 97/282/32
f 94/250/28 86/276/28 98/283/28 97/284/28
f 86/264/5 85/263/5 99/285/5 98/286/5
f 85/277/27 93/245/27 100/287/27 99/288/27
f 104/289/15 103/290/15 101/291/15 102/292/15
f 102/293/16 101/294/16 105/295/16 106/296/16
f 106/297/17 105/298/17 107/299/17 108/300/17
f 108/301/18 107/302/18 103/303/18 104/304/18
f 102/305/19 106/306/19 108/307/19 104/308/19
f 105/309/20 101/310/20 103/311/20 107/312/20
f 109/313/21 116/314/21 114/315/21 111/316/21
f 115/317/22 110/318/22 112/319/22 113/320/22
f 112/321/23 111/322/23 114/323/23 113/324/23
f 110/325/24 109/326/24 111/327/24 112/328/24
f 115/329/25 116/330/25 109/331/25 110/332/25
f 113/333/26 114/334/26 116/335/26 115/336/26
f 117/337/6 124/338/6 122/339/6 119/340/6
f 118/341/33 120/342/33 126/343/33 127/344/33
f 120/345/28 119/346/28 122/347/28 121/348/28
f 118/349/29 117/350/29 119/351/29 120/352/29
f 123/353/27 124/354/27 117/355/27 118/356/27
f 121/357/30 122/358/30 124/359/30 123/360/30
f 125/361/30 128/362/30 132/363/30 129/364/30
f 123/365/34 118/341/34 127/344/34 128/366/34
f 120/342/35 121/367/35 125/368/35 126/343/35
f 121/367/36 123/365/36 128/366/36 125/368/36
f 132/369/5 131/370/5 130/371/5 129/372/5
f 127/373/29 126/374/29 130/375/29 131/376/29
f 128/377/27 127/378/27 131/379/27 132/380/27
f 126/381/28 125/382/28 129/383/28 130/384/28
